<svg width="30" height="30" viewBox="0 0 30 30" fill="none" xmlns="http://www.w3.org/2000/svg">
<rect opacity="0.6" width="30" height="30" rx="15" fill="white"/>
<g clip-path="url(#clip0_1151_3691)">
<path d="M11.186 9L12.128 7.77867C12.3156 7.5372 12.5558 7.34161 12.8302 7.2067C13.1047 7.07179 13.4062 7.00111 13.712 7H16.288C16.5938 7.00111 16.8953 7.07179 17.1698 7.2067C17.4442 7.34161 17.6844 7.5372 17.872 7.77867L18.814 9H11.186Z" fill="#444444"/>
<path d="M15 19C13.5272 19 12.3333 17.8061 12.3333 16.3333C12.3333 14.8606 13.5272 13.6667 15 13.6667C16.4728 13.6667 17.6667 14.8606 17.6667 16.3333C17.6667 17.8061 16.4728 19 15 19Z" fill="#444444"/>
<path d="M10.3333 10.3333H19.6667C20.5504 10.3344 21.3976 10.6859 22.0225 11.3108C22.6474 11.9357 22.9989 12.7829 23 13.6667V19.6667C22.9989 20.5504 22.6474 21.3976 22.0225 22.0225C21.3976 22.6474 20.5504 22.9989 19.6667 23H10.3333C9.4496 22.9989 8.60237 22.6474 7.97748 22.0225C7.35259 21.3976 7.00106 20.5504 7 19.6667V13.6667C7.00106 12.7829 7.35259 11.9357 7.97748 11.3108C8.60237 10.6859 9.4496 10.3344 10.3333 10.3333ZM15 20.3333C15.7911 20.3333 16.5645 20.0987 17.2223 19.6592C17.8801 19.2197 18.3928 18.595 18.6955 17.8641C18.9983 17.1332 19.0775 16.3289 18.9231 15.553C18.7688 14.777 18.3878 14.0643 17.8284 13.5049C17.269 12.9455 16.5563 12.5645 15.7804 12.4102C15.0044 12.2559 14.2002 12.3351 13.4693 12.6378C12.7384 12.9406 12.1136 13.4533 11.6741 14.1111C11.2346 14.7688 11 15.5422 11 16.3333C11.0011 17.3939 11.4228 18.4107 12.1727 19.1606C12.9227 19.9105 13.9395 20.3323 15 20.3333Z" fill="#444444"/>
</g>
<defs>
<clipPath id="clip0_1151_3691">
<rect width="16" height="16" fill="white" transform="matrix(-1 0 0 1 23 7)"/>
</clipPath>
</defs>
</svg>
