<svg xmlns="http://www.w3.org/2000/svg" width="20" height="20" viewBox="0 0 20 20" fill="none">
<g opacity="0.5">
<path d="M17.5 10.8333C17.5 8.61107 17.0833 6.66663 16.6667 6.38885C16.3996 6.21082 15.1057 6.03279 13.3333 5.92789C12.3403 5.86911 14.1667 4.16663 10 4.16663C5.83333 4.16663 7.65973 5.86911 6.66667 5.92789C4.8943 6.03279 3.60038 6.21082 3.33333 6.38885C2.91667 6.66663 2.5 8.61107 2.5 10.8333C2.5 13.0555 2.91667 15 3.33333 15.2777C3.75 15.5555 6.66667 15.8333 10 15.8333C13.3333 15.8333 16.25 15.5555 16.6667 15.2777C17.0833 15 17.5 13.0555 17.5 10.8333Z" stroke="white" stroke-width="1.5" stroke-linecap="round" stroke-linejoin="round"/>
<path d="M10 13.3333C11.3807 13.3333 12.5 12.214 12.5 10.8333C12.5 9.45258 11.3807 8.33329 10 8.33329C8.61929 8.33329 7.5 9.45258 7.5 10.8333C7.5 12.214 8.61929 13.3333 10 13.3333Z" stroke="white" stroke-width="1.5" stroke-linecap="round" stroke-linejoin="round"/>
</g>
</svg>