<svg width="30" height="30" viewBox="0 0 30 30" fill="none" xmlns="http://www.w3.org/2000/svg">
<rect opacity="0.6" width="30" height="30" rx="15" fill="white"/>
<g clip-path="url(#clip0_1106_3128)">
<path d="M11.3333 8.94473C12.084 8.95612 12.8184 9.16057 13.4622 9.53743C14.106 9.91429 14.6364 10.4502 15 11.0911C15.3636 10.4502 15.894 9.91429 16.5378 9.53743C17.1816 9.16057 17.916 8.95612 18.6667 8.94473C19.8634 8.99546 20.9909 9.5062 21.8028 10.3654C22.6148 11.2245 23.0452 12.3623 23 13.5301C23 16.4875 19.8093 19.7174 17.1333 21.9073C16.5359 22.3972 15.7804 22.6657 15 22.6657C14.2196 22.6657 13.4641 22.3972 12.8667 21.9073C10.1907 19.7174 7 16.4875 7 13.5301C6.95483 12.3623 7.38524 11.2245 8.19719 10.3654C9.00914 9.5062 10.1366 8.99546 11.3333 8.94473Z" fill="#444444"/>
</g>
<defs>
<clipPath id="clip0_1106_3128">
<rect width="16" height="15.6098" fill="white" transform="matrix(-1 0 0 1 23 7.69791)"/>
</clipPath>
</defs>
</svg>
