<svg width="31" height="31" viewBox="0 0 31 31" fill="none" xmlns="http://www.w3.org/2000/svg">
<rect opacity="0.6" x="0.432861" y="0.0986328" width="30" height="30" rx="15" fill="white"/>
<g clip-path="url(#clip0_1106_3130)">
<path d="M10.3333 13.1035V12.1542C10.3333 9.57689 12.4227 7.48755 15 7.48755C17.5773 7.48755 19.6667 9.57689 19.6667 12.1542V13.1035C20.88 13.6331 21.6649 14.8304 21.6667 16.1542V20.1542C21.6645 21.9942 20.1734 23.4854 18.3333 23.4875H11.6667C9.82666 23.4854 8.33556 21.9942 8.33334 20.1542V16.1542C8.33506 14.8304 9.12003 13.6331 10.3333 13.1035ZM14.3333 18.8209C14.3333 19.1891 14.6318 19.4875 15 19.4875C15.3682 19.4875 15.6667 19.1891 15.6667 18.8209V17.4875C15.6667 17.1194 15.3682 16.8209 15 16.8209C14.6318 16.8209 14.3333 17.1194 14.3333 17.4875V18.8209ZM11.6667 12.8209H18.3333V12.1542C18.3333 10.3133 16.841 8.82089 15 8.82089C13.159 8.82089 11.6667 10.3133 11.6667 12.1542V12.8209Z" fill="#444444"/>
</g>
<defs>
<clipPath id="clip0_1106_3130">
<rect width="16" height="16" fill="white" transform="matrix(-1 0 0 1 23 7.48755)"/>
</clipPath>
</defs>
</svg>
