<svg id="Layer_1" fill="#f97315" width="60" height="60" data-name="Layer 1" xmlns="http://www.w3.org/2000/svg" viewBox="0 0 800 800"><path class="cls-1" d="M546,380.73c-52.54-49.51-93.26-57.88-120.9-53.83,23,6.36,93.64,33.52,110.91,130.17,8.77,49.11-7,100-28.9,143.29a228.13,228.13,0,0,0,95.08-96.7C597.49,460.47,582.41,415.08,546,380.73Z"/><path class="cls-1" d="M400,172.86c-125.45,0-227.14,101.69-227.14,227.14a226,226,0,0,0,34.07,119.68c50,2.65,146.64,3.5,192.54-34.14,4-3.25,7.5-6.35,10.73-9.35a78,78,0,0,1-10.2.69,77,77,0,0,1-72.24-103.27h0a76.87,76.87,0,0,1,6.75-13.89c3.4-7.81,6.85-17.3,7-24L341,289.93c-93.69,27.18-64.08,100.81-64.08,100.81-58.62-53.74-27-97.46-17.58-108.5l5.32-6.07,26.67,31.55a1.1,1.1,0,0,0,1.48.17l9-6.46A1,1,0,0,0,302,300l-29.16-33.19,1.38-1.59a84,84,0,0,1,13.31-24.31s20.39-31,62.58-18.85,35,66.51,35,66.51v30c63.64-27.7,115.41-7.21,168.94,35.17,45.82,36.3,61.83,77.07,67.28,97.76A228.22,228.22,0,0,0,627.14,400C627.14,274.55,525.45,172.86,400,172.86Z"/><path class="cls-1" d="M512.34,465.54c-2.62-46.4-31.56-77.63-37.63-83.71a76,76,0,0,1,1.67,9.48h0s16.75,65.94-20.62,136.1c-18.29,34.33-50.43,69.15-81.92,98.24a230.28,230.28,0,0,0,26.15,1.5,227.57,227.57,0,0,0,56.41-7.06l.2-.67S516.89,545.81,512.34,465.54Z"/><path class="cls-1" d="M398.87,559.07c38.9-41.3,48.91-68,52.76-96.17-8.83,16.62-22.89,34.5-45.27,50.3-46.25,32.68-119,39.64-174.84,39.14a227.39,227.39,0,0,0,95.54,62.84C351.72,600.55,377.3,582,398.87,559.07Z"/><circle class="cls-1" cx="314.68" cy="262.34" r="9.81"/></svg>