<svg width="20" height="20" viewBox="0 0 20 20" fill="none" xmlns="http://www.w3.org/2000/svg">
    <path d="M2.46814 15.5319C3.62291 17.7154 5.92876 18.5 10 18.5C15.6255 18.5 17.8804 17.002 18.3853 12.3853M2.46814 15.5319C1.77924 14.2292 1.5 12.4288 1.5 10C1.5 3.5 3.5 1.5 10 1.5C16.5 1.5 18.5 3.5 18.5 10C18.5 10.8745 18.4638 11.6676 18.3853 12.3853M2.46814 15.5319L5.58579 12.4142C6.36684 11.6332 7.63317 11.6332 8.41422 12.4142L8.58579 12.5858C9.36684 13.3668 10.6332 13.3668 11.4142 12.5858L13.5858 10.4142C14.3668 9.63317 15.6332 9.63317 16.4142 10.4142L18.3853 12.3853M8.691 6.846C8.691 7.865 7.864 8.692 6.845 8.692C5.827 8.692 5 7.865 5 6.846C5 5.827 5.827 5 6.845 5C7.864 5 8.691 5.827 8.691 6.846Z" stroke="#001A72" stroke-width="1.5" stroke-linecap="round" stroke-linejoin="round"/>
</svg>
